# xmcd
#
# Track frame offsets:
#	150
#	14165
#	33106
#	60391
#	79821
#	95984
#	134432
#	161073
#	179521
#	196908
#	216318
#	236301
#	260092
#	296027
#
# Disc length: 4219 seconds
#
# Revision: 1
# Processed by: cddbd v1.5.2PL0 Copyright (c) Steve Scherf et al.
# Submitted via: audiograbber 1.83.01
#
DISCID=d210790e
DTITLE=Red Fox Bluesband - Come On Everybody
DYEAR=2012
DGENRE=Blues
TTITLE0=Lonesome
TTITLE1=Come On Everybody
TTITLE2=Congo Square
TTITLE3=San Ho Zay
TTITLE4=Comin' Home Baby
TTITLE5=Cross Your Heart/Mr. Pc
TTITLE6=Every Day I Have The Blues
TTITLE7=Good Time Charly
TTITLE8=It's My Soul
TTITLE9=Lie To Me
TTITLE10=Oh Baby
TTITLE11=Should Have Her Done Better
TTITLE12=Stormy Monday Blues
TTITLE13=Stick To The Hip
EXTD=
EXTT0=
EXTT1=
EXTT2=
EXTT3=
EXTT4=
EXTT5=
EXTT6=
EXTT7=
EXTT8=
EXTT9=
EXTT10=
EXTT11=
EXTT12=
EXTT13=
PLAYORDER=
